<?xml version="1.0" encoding="UTF-8"?>
<svg id="Capa_1" xmlns="http://www.w3.org/2000/svg" version="1.1" viewBox="0 0 48 48">
  <!-- Generator: Adobe Illustrator 30.4.0, SVG Export Plug-In . SVG Version: 2.1.4 Build 226)  -->
  <defs>
    <style>
      .st0 {
        fill: #faefdc;
      }

      .st1 {
        fill: #030302;
      }

      .st2 {
        fill: #f3dfc1;
      }

      .st3 {
        fill: #f5d6a2;
      }

      .st4 {
        fill: #f2d8b1;
      }

      .st5 {
        fill: #f8eddb;
      }

      .st6 {
        fill: #f6dcb4;
      }

      .st7 {
        fill: #e69795;
      }

      .st8 {
        fill: #f2d3a1;
      }

      .st9 {
        fill: #f8f3ea;
      }

      .st10 {
        fill: #f0c989;
      }

      .st11 {
        fill: #989898;
      }
    </style>
  </defs>
  <path class="st1" d="M17.1,3.7c-1,.3-1.3,1.2-1,2s1.1,1.2,1.9,1,1.3-1.1,1.1-1.9-1-1.3-1.9-1.1ZM27.6,9.4l4.6,2.3c1.1.6,2.4.1,3-1s.2-2.3-.9-2.9c-1.2.9-2.8,1-4,.2s-1.9-2.1-1.6-3.7c-2.5-1.1-5.3-1-7.8,0,.3,1.5-.4,2.9-1.5,3.7s-2.8.7-4-.2c-1.1.7-1.4,2-.8,3s1.8,1.4,2.9.9l5.5-2.7c1.5-.7,3.2-.4,4.7.4ZM31.7,3.7c-.9.3-1.3,1.2-1,2s1.1,1.2,1.9,1,1.3-1.1,1.1-1.9-1-1.3-1.9-1.1ZM25.2,15.9l2.2-4.4c-1.9-1.2-3.2-1.2-5.1,0l2.1,4.3c0,.2.2.3.4.3s.3,0,.4-.3ZM23.8,19.6v-1.8c-.4-.2-.8-.6-1-1l-2.2-4.5-1.4.7,2.3,4.7c.5,1,1.4,1.6,2.4,1.9ZM25.8,19.6c1.3-.4,2-1.2,2.5-2.2l2.1-4.4-1.4-.7-2.2,4.5c-.2.5-.7.7-1,1-.1.5,0,1.2,0,1.8ZM38.4,22.1c-.4,0-.9.2-1.1-.1-.8-1-1.6-1.9-2.4-2.8l-1.3,2.9c-2.6,5.7-4,11.8-3.9,18.1l6.8-3.2c2.8-3.2,3.7-7.6,2.5-11.7-.1-.5,0-.9.5-1.2.4,0,.9,0,1.2.4.9,2.6.9,5.4.3,8.2,2.8-4.5,2.4-10.2-1-14.1l-2.7-3.1c-.6-.7-1.1-1.5-1.4-2.5-.5.4-1,.7-1.6.9.2.9.3,1.9.9,2.6l3.4,3.9c.3.3.4.6.4,1s-.3.5-.4.7ZM24.1,29.4h4.8c.7-2.9,1.7-5.6,2.9-8.4l1.6-3.6c-.9-1.1-.9-2.3-1.3-3.6l-2.3,4.8c-.9,1.6-2.3,2.6-4.1,3,0,.7-.1,1.5,0,2.2.7.9,2.1,1.7,1.3,2.6s-1,.4-1.4,0-.6-.7-1-.9c-.4.4-.8.9-1.2,1.1-.4,0-.9,0-1.1-.5-.4-.6,0-1.1.6-1.7s.7-.4.7-.8v-2.1c-.6-.1-1.1-.3-1.6-.5-1.2-.6-2.1-1.7-2.7-3l-2-4.3c-.3,1.4-.5,2.6-1.3,3.7l1.6,3.6c1.2,2.7,2.2,5.4,2.9,8.3h3.4ZM17.6,38.9l2.5,1.1c0-5.1-.8-10-2.5-14.7s-1.7-4.2-2.7-6.3l-1.3,1.4c-4.3,4.6-4.5,11.7-.2,16.4l4.3,2ZM25.3,36.4h2.5c.1-1.8.4-3.4.7-5.1h-4s-3.4,0-3.4,0c.3,1.7.6,3.3.7,5.1h3.5ZM41.1,17l-2.7-3c-.4-.5-.7-1.1-.8-1.7l-.4-2.2c0-1.5-.5-2.8-1.9-3.7.5-1.6,0-3.3-1.4-4.1-1.4-1-3.1-.5-4.3.4-1.8-.5-3.7-1.1-5.6-.9-1.4.2-2.7.4-4,1-1.2-1.2-2.9-1.4-4.3-.5-1.4.9-2,2.5-1.4,4.1-1.3.9-1.9,2.2-1.9,3.7l-.4,2.1c-.1.8-.5,1.5-1,2l-2.1,2.4c-.4.4-.4,1,0,1.4.4.4,1,.3,1.4,0l2.3-2.6c.6-.7,1-1.5,1.3-2.4.6.4,1,.7,1.7.9-.2,1-.3,2-.9,2.7l-2.6,3c-3.1,3.6-4.2,8.2-3.2,12.9-2.2-3.4-2.2-7.7-.6-11.3.2-.5,0-1.1-.4-1.3-.4-.2-1,0-1.3.4-3.2,6.9-.4,15.1,6.5,18.5l7.2,3.4v5.8h1.9v-3.2h5.8s0,3.2,0,3.2h1.9v-5.8s6.8-3.2,6.8-3.2c4.2-1.9,7.1-5.7,7.9-10.3.8-4.2-.4-8.5-3.2-11.7ZM27.7,42.9h-2s-3.7,0-3.7,0v-4.6s3.7,0,3.7,0h2.1s0,4.6,0,4.6Z"/>
  <path class="st10" d="M7.6,19.8l1.2-1.8c.4.4,1,.3,1.4,0l2.3-2.6c.6-.7,1-1.5,1.3-2.4.6.4,1,.7,1.7.9-.2,1-.3,2-.9,2.7l-2.6,3c-3.1,3.6-4.2,8.2-3.2,12.9-2.2-3.4-2.2-7.7-.6-11.3s0-1.1-.4-1.3Z"/>
  <path class="st6" d="M38.4,22.1c.5.6.8,1.3,1,2-.5.3-.7.7-.5,1.2,1.2,4.1.3,8.5-2.5,11.7l-6.8,3.2c0-6.3,1.3-12.4,3.9-18.1l1.3-2.9c.9.9,1.6,1.8,2.4,2.8s.8.2,1.1.1Z"/>
  <path class="st3" d="M17.5,25.4c-2.5,4.2-2.4,9.4,0,13.6l-4.3-2c-4.2-4.7-4.1-11.8.2-16.4l1.3-1.4c1,2.1,1.9,4.1,2.7,6.3Z"/>
  <path class="st2" d="M27.6,9.4c-1.5-.8-3.2-1.1-4.7-.4l-5.5,2.7c-1.1.5-2.3,0-2.9-.9s-.3-2.3.8-3c1.2.9,2.7,1,4,.2s1.9-2.1,1.5-3.7c2.5-1,5.3-1.1,7.8,0-.3,1.5.4,2.9,1.6,3.7s2.8.7,4-.2c1,.6,1.4,1.9.9,2.9s-1.9,1.5-3,1l-4.6-2.3Z"/>
  <path class="st9" d="M24.1,29.4l-.5-2.7c.5-.3.8-.7,1.2-1.1.4.2.6.6,1,.9s1,.4,1.4,0c.8-.9-.6-1.6-1.3-2.6-.2-.7,0-1.4,0-2.2,1.8-.3,3.2-1.4,4.1-3l2.3-4.8c.4,1.3.4,2.5,1.3,3.6l-1.6,3.6c-1.2,2.7-2.2,5.5-2.9,8.4h-4.8Z"/>
  <path class="st5" d="M22.2,21.1l.9,3.4c-.6.6-1,1-.6,1.7s.7.6,1.1.5l.5,2.7h-3.4c-.7-2.9-1.7-5.6-2.9-8.3l-1.6-3.6c.8-1.1,1-2.3,1.3-3.7l2,4.3c.6,1.3,1.5,2.3,2.7,3Z"/>
  <path class="st6" d="M17.6,38.9c-2.5-4.1-2.6-9.4,0-13.6,1.7,4.7,2.6,9.6,2.5,14.7l-2.5-1.1Z"/>
  <path class="st8" d="M39.4,24c-.2-.7-.5-1.4-1-2,.1-.2.4-.4.4-.7s-.1-.7-.4-1l-3.4-3.9c-.6-.7-.7-1.7-.9-2.6.7-.2,1.1-.5,1.6-.9.3,1,.7,1.8,1.4,2.5l2.7,3.1c3.4,3.9,3.7,9.6,1,14.1.6-2.8.7-5.5-.3-8.2-.3-.4-.8-.5-1.2-.4Z"/>
  <path class="st5" d="M25.6,38.3c0,1.5,0,3.1,0,4.6h-3.7s0-4.6,0-4.6h3.7Z"/>
  <path class="st0" d="M24.5,31.3c.3,1.7.6,3.4.8,5.1h-3.5c-.1-1.8-.4-3.4-.7-5.1h3.4Z"/>
  <path class="st9" d="M25.3,36.4c-.2-1.7-.5-3.4-.8-5.1h4c-.3,1.7-.6,3.3-.7,5.1h-2.5Z"/>
  <path class="st7" d="M25.2,15.9c-.1.2-.2.3-.4.3s-.3-.1-.4-.3l-2.1-4.3c1.8-1.2,3.2-1.2,5.1,0l-2.2,4.4Z"/>
  <polygon class="st0" points="25.8 44.8 25.7 48 21.9 48 21.9 44.8 25.8 44.8"/>
  <path class="st4" d="M23.8,19.6c-1-.2-1.9-.9-2.4-1.9l-2.3-4.7,1.4-.7,2.2,4.5c.2.5.6.8,1,1v1.8Z"/>
  <path class="st4" d="M25.8,19.6c-.1-.5-.1-1.2,0-1.8.3-.3.8-.5,1-1l2.2-4.5,1.4.7-2.1,4.4c-.5,1-1.2,1.8-2.5,2.2Z"/>
  <path class="st9" d="M25.6,42.9c0-1.5,0-3.1,0-4.6h2.1s0,4.6,0,4.6h-2Z"/>
  <polygon class="st9" points="27.7 44.8 27.7 48 25.7 48 25.8 44.8 27.7 44.8"/>
  <path class="st11" d="M31.7,3.7c.9-.3,1.7.3,1.9,1.1s-.3,1.7-1.1,1.9-1.6-.2-1.9-1,0-1.8,1-2Z"/>
  <path class="st11" d="M17.1,3.7c.9-.3,1.7.3,1.9,1.1s-.3,1.7-1.1,1.9-1.6-.2-1.9-1,0-1.8,1-2Z"/>
  <path class="st9" d="M23.1,24.5l-.9-3.4c.5.2,1,.4,1.7.5v2.1c0,.4-.6.6-.8.8Z"/>
</svg>